<svg width="64" height="64" viewBox="0 0 48 48" fill="none" xmlns="http://www.w3.org/2000/svg">
  <defs>
    <linearGradient id="valut_bg" x1="4" y1="4" x2="44" y2="44" gradientUnits="userSpaceOnUse">
      <stop offset="0%" stopColor="#1E1E24" />
      <stop offset="50%" stopColor="#121216" />
      <stop offset="100%" stopColor="#0A0A0D" />
    </linearGradient>
    <linearGradient id="valut_accent" x1="12" y1="12" x2="36" y2="36" gradientUnits="userSpaceOnUse">
      <stop offset="0%" stopColor="#38BDF8" />
      <stop offset="50%" stopColor="#6366F1" />
      <stop offset="100%" stopColor="#A855F7" />
    </linearGradient>
    <linearGradient id="valut_bevel" x1="24" y1="4" x2="24" y2="44" gradientUnits="userSpaceOnUse">
      <stop offset="0%" stopColor="#FFFFFF" stopOpacity="0.25" />
      <stop offset="100%" stopColor="#000000" stopOpacity="0.6" />
    </linearGradient>
  </defs>

  <!-- Hexagonal Vault Outer Shell -->
  <path
    d="M24 3.5L41.5 13.5V33.5L24 43.5L6.5 33.5V13.5L24 3.5Z"
    fill="url(#valut_bg)"
    stroke="url(#valut_bevel)"
    stroke-width="1.5"
    stroke-linejoin="round"
  />

  <!-- Inner Chamber -->
  <path
    d="M24 6.5L39 15.5V31.5L24 40.5L9 31.5V15.5L24 6.5Z"
    fill="#0E0E12"
    stroke="rgba(255,255,255,0.08)"
    stroke-width="1"
  />

  <!-- Interlocking Dimensional 'V' -->
  <path
    d="M16 16L24 32L32 16H27.5L24 23.5L20.5 16H16Z"
    fill="url(#valut_accent)"
  />

  <!-- Core Key Aperture -->
  <polygon
    points="24,25.5 27,31.5 21,31.5"
    fill="#FFFFFF"
    fill-opacity="0.95"
  />

  <!-- Security Nodes -->
  <circle cx="24" cy="10" r="1.25" fill="#38BDF8" />
  <circle cx="35" cy="18" r="1.25" fill="#6366F1" />
  <circle cx="13" cy="18" r="1.25" fill="#38BDF8" />
</svg>
